<?xml version="1.0" encoding="UTF-8" standalone="no"?><svg xmlns="http://www.w3.org/2000/svg" xmlns:xlink="http://www.w3.org/1999/xlink" contentScriptType="application/ecmascript" contentStyleType="text/css" height="627px" preserveAspectRatio="none" style="width:1044px;height:627px;" version="1.1" viewBox="0 0 1044 627" width="1044px" zoomAndPan="magnify"><defs><filter height="300%" id="ffqijgvwsiucx" width="300%" x="-1" y="-1"><feGaussianBlur result="blurOut" stdDeviation="2.0"/><feColorMatrix in="blurOut" result="blurOut2" type="matrix" values="0 0 0 0 0 0 0 0 0 0 0 0 0 0 0 0 0 0 .4 0"/><feOffset dx="4.0" dy="4.0" in="blurOut2" result="blurOut3"/><feBlend in="SourceGraphic" in2="blurOut3" mode="normal"/></filter></defs><g><!--MD5=[217537f29afe639f347895754667a4fd]
class p--><rect fill="#FEFECE" filter="url(#ffqijgvwsiucx)" height="129.6016" id="p" style="stroke: #A80036; stroke-width: 1.5;" width="438" x="200.5" y="8"/><text fill="#000000" font-family="sans-serif" font-size="12" lengthAdjust="spacingAndGlyphs" textLength="49" x="395" y="24.1387">Product</text><line style="stroke: #A80036; stroke-width: 1.5;" x1="201.5" x2="637.5" y1="31.9688" y2="31.9688"/><ellipse cx="211.5" cy="42.9688" fill="#000000" rx="3" ry="3" style="stroke: #000000; stroke-width: 1.0;"/><text fill="#000000" font-family="sans-serif" font-size="11" lengthAdjust="spacingAndGlyphs" textLength="161" x="220.5" y="46.1792">product_id : int «generated»</text><line style="stroke: #A80036; stroke-width: 1.0;" x1="201.5" x2="637.5" y1="52.7734" y2="52.7734"/><ellipse cx="211.5" cy="63.7734" fill="#000000" rx="3" ry="3" style="stroke: #000000; stroke-width: 1.0;"/><text fill="#000000" font-family="sans-serif" font-size="11" lengthAdjust="spacingAndGlyphs" textLength="77" x="220.5" y="66.9839">name : string</text><ellipse cx="211.5" cy="76.5781" fill="#000000" rx="3" ry="3" style="stroke: #000000; stroke-width: 1.0;"/><text fill="#000000" font-family="sans-serif" font-size="11" lengthAdjust="spacingAndGlyphs" textLength="108" x="220.5" y="79.7886">description : string</text><ellipse cx="211.5" cy="89.3828" fill="#000000" rx="3" ry="3" style="stroke: #000000; stroke-width: 1.0;"/><text fill="#000000" font-family="sans-serif" font-size="11" lengthAdjust="spacingAndGlyphs" textLength="80" x="220.5" y="92.5933">image : string</text><ellipse cx="211.5" cy="102.1875" fill="#000000" rx="3" ry="3" style="stroke: #000000; stroke-width: 1.0;"/><text fill="#000000" font-family="sans-serif" font-size="11" lengthAdjust="spacingAndGlyphs" textLength="122" x="220.5" y="105.3979">category_id : int «FK»</text><ellipse cx="211.5" cy="114.9922" fill="#000000" rx="3" ry="3" style="stroke: #000000; stroke-width: 1.0;"/><text fill="#000000" font-family="sans-serif" font-size="11" lengthAdjust="spacingAndGlyphs" textLength="118" x="220.5" y="118.2026">base_price : decimal</text><text fill="#000000" font-family="sans-serif" font-size="11" lengthAdjust="spacingAndGlyphs" textLength="412" x="220.5" y="131.0073">default_psc_id : int «FK» -- default Product_Size_Color ID for this product</text><!--MD5=[e3471f280e59d1431a9a122c0f31e779]
class c--><rect fill="#FEFECE" filter="url(#ffqijgvwsiucx)" height="78.3828" id="c" style="stroke: #A80036; stroke-width: 1.5;" width="193" x="6" y="198"/><text fill="#000000" font-family="sans-serif" font-size="12" lengthAdjust="spacingAndGlyphs" textLength="56" x="74.5" y="214.1387">Category</text><line style="stroke: #A80036; stroke-width: 1.5;" x1="7" x2="198" y1="221.9688" y2="221.9688"/><ellipse cx="17" cy="232.9688" fill="#000000" rx="3" ry="3" style="stroke: #000000; stroke-width: 1.0;"/><text fill="#000000" font-family="sans-serif" font-size="11" lengthAdjust="spacingAndGlyphs" textLength="167" x="26" y="236.1792">category_id : int «generated»</text><line style="stroke: #A80036; stroke-width: 1.0;" x1="7" x2="198" y1="242.7734" y2="242.7734"/><ellipse cx="17" cy="253.7734" fill="#000000" rx="3" ry="3" style="stroke: #000000; stroke-width: 1.0;"/><text fill="#000000" font-family="sans-serif" font-size="11" lengthAdjust="spacingAndGlyphs" textLength="77" x="26" y="256.9839">name : string</text><text fill="#000000" font-family="sans-serif" font-size="11" lengthAdjust="spacingAndGlyphs" textLength="108" x="26" y="269.7886">description : string</text><!--MD5=[6036787eb73352ecfe97a82ba4e434c5]
class s--><rect fill="#FEFECE" filter="url(#ffqijgvwsiucx)" height="65.5781" id="s" style="stroke: #A80036; stroke-width: 1.5;" width="166" x="234.5" y="204"/><text fill="#000000" font-family="sans-serif" font-size="12" lengthAdjust="spacingAndGlyphs" textLength="24" x="305.5" y="220.1387">Size</text><line style="stroke: #A80036; stroke-width: 1.5;" x1="235.5" x2="399.5" y1="227.9688" y2="227.9688"/><ellipse cx="245.5" cy="238.9688" fill="#000000" rx="3" ry="3" style="stroke: #000000; stroke-width: 1.0;"/><text fill="#000000" font-family="sans-serif" font-size="11" lengthAdjust="spacingAndGlyphs" textLength="140" x="254.5" y="242.1792">size_id : int «generated»</text><line style="stroke: #A80036; stroke-width: 1.0;" x1="235.5" x2="399.5" y1="248.7734" y2="248.7734"/><ellipse cx="245.5" cy="259.7734" fill="#000000" rx="3" ry="3" style="stroke: #000000; stroke-width: 1.0;"/><text fill="#000000" font-family="sans-serif" font-size="11" lengthAdjust="spacingAndGlyphs" textLength="77" x="254.5" y="262.9839">name : string</text><!--MD5=[99e64a194807edd2f6fe3448553d40d8]
class col--><rect fill="#FEFECE" filter="url(#ffqijgvwsiucx)" height="65.5781" id="col" style="stroke: #A80036; stroke-width: 1.5;" width="172" x="435.5" y="204"/><text fill="#000000" font-family="sans-serif" font-size="12" lengthAdjust="spacingAndGlyphs" textLength="32" x="505.5" y="220.1387">Color</text><line style="stroke: #A80036; stroke-width: 1.5;" x1="436.5" x2="606.5" y1="227.9688" y2="227.9688"/><ellipse cx="446.5" cy="238.9688" fill="#000000" rx="3" ry="3" style="stroke: #000000; stroke-width: 1.0;"/><text fill="#000000" font-family="sans-serif" font-size="11" lengthAdjust="spacingAndGlyphs" textLength="146" x="455.5" y="242.1792">color_id : int «generated»</text><line style="stroke: #A80036; stroke-width: 1.0;" x1="436.5" x2="606.5" y1="248.7734" y2="248.7734"/><ellipse cx="446.5" cy="259.7734" fill="#000000" rx="3" ry="3" style="stroke: #000000; stroke-width: 1.0;"/><text fill="#000000" font-family="sans-serif" font-size="11" lengthAdjust="spacingAndGlyphs" textLength="77" x="455.5" y="262.9839">name : string</text><!--MD5=[1c2dfb60161a2e7d1eed6eee049a785a]
class psc--><rect fill="#FEFECE" filter="url(#ffqijgvwsiucx)" height="103.9922" id="psc" style="stroke: #A80036; stroke-width: 1.5;" width="184" x="429.5" y="336"/><text fill="#000000" font-family="sans-serif" font-size="12" lengthAdjust="spacingAndGlyphs" textLength="117" x="463" y="352.1387">Product_Size_Color</text><line style="stroke: #A80036; stroke-width: 1.5;" x1="430.5" x2="612.5" y1="359.9688" y2="359.9688"/><ellipse cx="440.5" cy="370.9688" fill="#000000" rx="3" ry="3" style="stroke: #000000; stroke-width: 1.0;"/><text fill="#000000" font-family="sans-serif" font-size="11" lengthAdjust="spacingAndGlyphs" textLength="138" x="449.5" y="374.1792">psc_id : int «generated»</text><ellipse cx="440.5" cy="383.7734" fill="#000000" rx="3" ry="3" style="stroke: #000000; stroke-width: 1.0;"/><text fill="#000000" font-family="sans-serif" font-size="11" lengthAdjust="spacingAndGlyphs" textLength="116" x="449.5" y="386.9839">product_id : int «FK»</text><ellipse cx="440.5" cy="396.5781" fill="#000000" rx="3" ry="3" style="stroke: #000000; stroke-width: 1.0;"/><text fill="#000000" font-family="sans-serif" font-size="11" lengthAdjust="spacingAndGlyphs" textLength="95" x="449.5" y="399.7886">size_id : int «FK»</text><ellipse cx="440.5" cy="409.3828" fill="#000000" rx="3" ry="3" style="stroke: #000000; stroke-width: 1.0;"/><text fill="#000000" font-family="sans-serif" font-size="11" lengthAdjust="spacingAndGlyphs" textLength="101" x="449.5" y="412.5933">color_id : int «FK»</text><text fill="#000000" font-family="sans-serif" font-size="11" lengthAdjust="spacingAndGlyphs" textLength="158" x="449.5" y="425.3979">price_factor : decimal = 1.0</text><line style="stroke: #A80036; stroke-width: 1.5;" x1="430.5" x2="612.5" y1="431.9922" y2="431.9922"/><!--MD5=[28a0229fd8e6e44ae380d889c8eab243]
class cart--><rect fill="#FEFECE" filter="url(#ffqijgvwsiucx)" height="65.5781" id="cart" style="stroke: #A80036; stroke-width: 1.5;" width="176" x="648.5" y="355"/><text fill="#000000" font-family="sans-serif" font-size="12" lengthAdjust="spacingAndGlyphs" textLength="26" x="723.5" y="371.1387">Cart</text><line style="stroke: #A80036; stroke-width: 1.5;" x1="649.5" x2="823.5" y1="378.9688" y2="378.9688"/><ellipse cx="659.5" cy="389.9688" fill="#000000" rx="3" ry="3" style="stroke: #000000; stroke-width: 1.0;"/><text fill="#000000" font-family="sans-serif" font-size="11" lengthAdjust="spacingAndGlyphs" textLength="140" x="668.5" y="393.1792">cart_id : int «generated»</text><text fill="#000000" font-family="sans-serif" font-size="11" lengthAdjust="spacingAndGlyphs" textLength="150" x="668.5" y="405.9839">total_price : decimal = 0.0</text><line style="stroke: #A80036; stroke-width: 1.5;" x1="649.5" x2="823.5" y1="412.5781" y2="412.5781"/><!--MD5=[e373b81aa261186aa76acdb762bff33c]
class b--><rect fill="#FEFECE" filter="url(#ffqijgvwsiucx)" height="103.9922" id="b" style="stroke: #A80036; stroke-width: 1.5;" width="164" x="549.5" y="506.5"/><text fill="#000000" font-family="sans-serif" font-size="12" lengthAdjust="spacingAndGlyphs" textLength="22" x="620.5" y="522.6387">Buy</text><line style="stroke: #A80036; stroke-width: 1.5;" x1="550.5" x2="712.5" y1="530.4688" y2="530.4688"/><ellipse cx="560.5" cy="541.4688" fill="#000000" rx="3" ry="3" style="stroke: #000000; stroke-width: 1.0;"/><text fill="#000000" font-family="sans-serif" font-size="11" lengthAdjust="spacingAndGlyphs" textLength="138" x="569.5" y="544.6792">buy_id : int «generated»</text><ellipse cx="560.5" cy="554.2734" fill="#000000" rx="3" ry="3" style="stroke: #000000; stroke-width: 1.0;"/><text fill="#000000" font-family="sans-serif" font-size="11" lengthAdjust="spacingAndGlyphs" textLength="95" x="569.5" y="557.4839">cart_id : int «FK»</text><ellipse cx="560.5" cy="567.0781" fill="#000000" rx="3" ry="3" style="stroke: #000000; stroke-width: 1.0;"/><text fill="#000000" font-family="sans-serif" font-size="11" lengthAdjust="spacingAndGlyphs" textLength="93" x="569.5" y="570.2886">psc_id : int «FK»</text><ellipse cx="560.5" cy="579.8828" fill="#000000" rx="3" ry="3" style="stroke: #000000; stroke-width: 1.0;"/><text fill="#000000" font-family="sans-serif" font-size="11" lengthAdjust="spacingAndGlyphs" textLength="71" x="569.5" y="583.0933">quantity : int</text><text fill="#000000" font-family="sans-serif" font-size="11" lengthAdjust="spacingAndGlyphs" textLength="84" x="569.5" y="595.8979">price : decimal</text><line style="stroke: #A80036; stroke-width: 1.5;" x1="550.5" x2="712.5" y1="602.4922" y2="602.4922"/><!--MD5=[232b6b5a43d5a1f4245de9c83d91ecd6]
class o--><rect fill="#FEFECE" filter="url(#ffqijgvwsiucx)" height="116.7969" id="o" style="stroke: #A80036; stroke-width: 1.5;" width="175" x="754" y="500"/><text fill="#000000" font-family="sans-serif" font-size="12" lengthAdjust="spacingAndGlyphs" textLength="35" x="824" y="516.1387">Order</text><line style="stroke: #A80036; stroke-width: 1.5;" x1="755" x2="928" y1="523.9688" y2="523.9688"/><ellipse cx="765" cy="534.9688" fill="#000000" rx="3" ry="3" style="stroke: #000000; stroke-width: 1.0;"/><text fill="#000000" font-family="sans-serif" font-size="11" lengthAdjust="spacingAndGlyphs" textLength="149" x="774" y="538.1792">order_id : int «generated»</text><ellipse cx="765" cy="547.7734" fill="#000000" rx="3" ry="3" style="stroke: #000000; stroke-width: 1.0;"/><text fill="#000000" font-family="sans-serif" font-size="11" lengthAdjust="spacingAndGlyphs" textLength="95" x="774" y="550.9839">cart_id : int «FK»</text><ellipse cx="765" cy="560.5781" fill="#000000" rx="3" ry="3" style="stroke: #000000; stroke-width: 1.0;"/><text fill="#000000" font-family="sans-serif" font-size="11" lengthAdjust="spacingAndGlyphs" textLength="103" x="774" y="563.7886">client_id : int «FK»</text><text fill="#000000" font-family="sans-serif" font-size="11" lengthAdjust="spacingAndGlyphs" textLength="124" x="774" y="576.5933">order_date : datetime</text><text fill="#000000" font-family="sans-serif" font-size="11" lengthAdjust="spacingAndGlyphs" textLength="115" x="774" y="589.3979">total_price : decimal</text><text fill="#000000" font-family="sans-serif" font-size="11" lengthAdjust="spacingAndGlyphs" textLength="81" x="774" y="602.2026">status : string</text><line style="stroke: #A80036; stroke-width: 1.5;" x1="755" x2="928" y1="608.7969" y2="608.7969"/><!--MD5=[faa9b2874725d030a61715b000656859]
class cl--><rect fill="#FEFECE" filter="url(#ffqijgvwsiucx)" height="91.1875" id="cl" style="stroke: #A80036; stroke-width: 1.5;" width="174" x="859.5" y="342.5"/><text fill="#000000" font-family="sans-serif" font-size="12" lengthAdjust="spacingAndGlyphs" textLength="35" x="929" y="358.6387">Client</text><line style="stroke: #A80036; stroke-width: 1.5;" x1="860.5" x2="1032.5" y1="366.4688" y2="366.4688"/><ellipse cx="870.5" cy="377.4688" fill="#000000" rx="3" ry="3" style="stroke: #000000; stroke-width: 1.0;"/><text fill="#000000" font-family="sans-serif" font-size="11" lengthAdjust="spacingAndGlyphs" textLength="148" x="879.5" y="380.6792">client_id : int «generated»</text><ellipse cx="870.5" cy="390.2734" fill="#000000" rx="3" ry="3" style="stroke: #000000; stroke-width: 1.0;"/><text fill="#000000" font-family="sans-serif" font-size="11" lengthAdjust="spacingAndGlyphs" textLength="76" x="879.5" y="393.4839">email : string</text><text fill="#000000" font-family="sans-serif" font-size="11" lengthAdjust="spacingAndGlyphs" textLength="89" x="879.5" y="406.2886">number : string</text><text fill="#000000" font-family="sans-serif" font-size="11" lengthAdjust="spacingAndGlyphs" textLength="61" x="879.5" y="419.0933">bill : string</text><line style="stroke: #A80036; stroke-width: 1.5;" x1="860.5" x2="1032.5" y1="425.6875" y2="425.6875"/><!--MD5=[8cdd25b2042008f4951f99f6c612d088]
link p to c--><path d="M217.5,146.29 C217.5,146.29 217.5,237 217.5,237 C217.5,237 207.02,237 207.02,237 " fill="none" id="p-c" style="stroke: #A80036; stroke-width: 1.0; stroke-dasharray: 7.0,7.0;"/><line style="stroke: #A80036; stroke-width: 1.0;" x1="207.02" x2="199.02" y1="237" y2="243"/><line style="stroke: #A80036; stroke-width: 1.0;" x1="207.02" x2="199.02" y1="237" y2="231"/><line style="stroke: #A80036; stroke-width: 1.0;" x1="207.02" x2="199.02" y1="237" y2="237"/><ellipse cx="213.02" cy="237" fill="none" rx="4" ry="4" style="stroke: #A80036; stroke-width: 1.0;"/><line style="stroke: #A80036; stroke-width: 1.0;" x1="213.5" x2="221.5" y1="142.29" y2="142.29"/><line style="stroke: #A80036; stroke-width: 1.0;" x1="213.5" x2="221.5" y1="145.29" y2="145.29"/><line style="stroke: #A80036; stroke-width: 1.0;" x1="217.5" x2="217.5" y1="146.29" y2="138.29"/><!--MD5=[b7781a483b9cc402446ea31135898800]
link p to s--><path d="M317.5,146.29 C317.5,146.29 317.5,195.9 317.5,195.9 " fill="none" id="p-s" style="stroke: #A80036; stroke-width: 1.0; stroke-dasharray: 7.0,7.0;"/><line style="stroke: #A80036; stroke-width: 1.0;" x1="317.5" x2="323.5" y1="195.9" y2="203.9"/><line style="stroke: #A80036; stroke-width: 1.0;" x1="317.5" x2="311.5" y1="195.9" y2="203.9"/><line style="stroke: #A80036; stroke-width: 1.0;" x1="317.5" x2="317.5" y1="195.9" y2="203.9"/><ellipse cx="317.5" cy="189.9" fill="none" rx="4" ry="4" style="stroke: #A80036; stroke-width: 1.0;"/><line style="stroke: #A80036; stroke-width: 1.0;" x1="313.5" x2="321.5" y1="142.29" y2="142.29"/><line style="stroke: #A80036; stroke-width: 1.0;" x1="313.5" x2="321.5" y1="145.29" y2="145.29"/><line style="stroke: #A80036; stroke-width: 1.0;" x1="317.5" x2="317.5" y1="146.29" y2="138.29"/><!--MD5=[486ad4d5e5fbc9475aedea39a18da260]
link p to col--><path d="M521.5,146.29 C521.5,146.29 521.5,195.9 521.5,195.9 " fill="none" id="p-col" style="stroke: #A80036; stroke-width: 1.0; stroke-dasharray: 7.0,7.0;"/><line style="stroke: #A80036; stroke-width: 1.0;" x1="521.5" x2="527.5" y1="195.9" y2="203.9"/><line style="stroke: #A80036; stroke-width: 1.0;" x1="521.5" x2="515.5" y1="195.9" y2="203.9"/><line style="stroke: #A80036; stroke-width: 1.0;" x1="521.5" x2="521.5" y1="195.9" y2="203.9"/><ellipse cx="521.5" cy="189.9" fill="none" rx="4" ry="4" style="stroke: #A80036; stroke-width: 1.0;"/><line style="stroke: #A80036; stroke-width: 1.0;" x1="517.5" x2="525.5" y1="142.29" y2="142.29"/><line style="stroke: #A80036; stroke-width: 1.0;" x1="517.5" x2="525.5" y1="145.29" y2="145.29"/><line style="stroke: #A80036; stroke-width: 1.0;" x1="521.5" x2="521.5" y1="146.29" y2="138.29"/><!--MD5=[332e09fb78dd7d44e031ed610704688b]
link p to psc--><path d="M626,146.06 C626,146.06 626,349 626,349 C626,349 621.6,349 621.6,349 " fill="none" id="p-psc" style="stroke: #A80036; stroke-width: 1.0; stroke-dasharray: 7.0,7.0;"/><line style="stroke: #A80036; stroke-width: 1.0;" x1="617.6" x2="617.6" y1="353" y2="345"/><line style="stroke: #A80036; stroke-width: 1.0;" x1="620.6" x2="620.6" y1="353" y2="345"/><line style="stroke: #A80036; stroke-width: 1.0;" x1="621.6" x2="613.6" y1="349" y2="349"/><line style="stroke: #A80036; stroke-width: 1.0;" x1="626" x2="620" y1="146.06" y2="138.06"/><line style="stroke: #A80036; stroke-width: 1.0;" x1="626" x2="632" y1="146.06" y2="138.06"/><line style="stroke: #A80036; stroke-width: 1.0;" x1="626" x2="626" y1="146.06" y2="138.06"/><ellipse cx="626" cy="152.06" fill="none" rx="4" ry="4" style="stroke: #A80036; stroke-width: 1.0;"/><!--MD5=[5f4b9597231b8edd054fa93943f30cca]
link s to psc--><path d="M317.5,278.14 C317.5,278.14 317.5,388 317.5,388 C317.5,388 421.35,388 421.35,388 " fill="none" id="s-psc" style="stroke: #A80036; stroke-width: 1.0; stroke-dasharray: 7.0,7.0;"/><line style="stroke: #A80036; stroke-width: 1.0;" x1="425.35" x2="425.35" y1="384" y2="392"/><line style="stroke: #A80036; stroke-width: 1.0;" x1="422.35" x2="422.35" y1="384" y2="392"/><line style="stroke: #A80036; stroke-width: 1.0;" x1="421.35" x2="429.35" y1="388" y2="388"/><line style="stroke: #A80036; stroke-width: 1.0;" x1="317.5" x2="311.5" y1="278.14" y2="270.14"/><line style="stroke: #A80036; stroke-width: 1.0;" x1="317.5" x2="323.5" y1="278.14" y2="270.14"/><line style="stroke: #A80036; stroke-width: 1.0;" x1="317.5" x2="317.5" y1="278.14" y2="270.14"/><ellipse cx="317.5" cy="284.14" fill="none" rx="4" ry="4" style="stroke: #A80036; stroke-width: 1.0;"/><!--MD5=[02c9089d6dcf2f1548de5cd8f2b3c0d2]
link col to psc--><path d="M521.5,278.14 C521.5,278.14 521.5,327.95 521.5,327.95 " fill="none" id="col-psc" style="stroke: #A80036; stroke-width: 1.0; stroke-dasharray: 7.0,7.0;"/><line style="stroke: #A80036; stroke-width: 1.0;" x1="525.5" x2="517.5" y1="331.95" y2="331.95"/><line style="stroke: #A80036; stroke-width: 1.0;" x1="525.5" x2="517.5" y1="328.95" y2="328.95"/><line style="stroke: #A80036; stroke-width: 1.0;" x1="521.5" x2="521.5" y1="327.95" y2="335.95"/><line style="stroke: #A80036; stroke-width: 1.0;" x1="521.5" x2="515.5" y1="278.14" y2="270.14"/><line style="stroke: #A80036; stroke-width: 1.0;" x1="521.5" x2="527.5" y1="278.14" y2="270.14"/><line style="stroke: #A80036; stroke-width: 1.0;" x1="521.5" x2="521.5" y1="278.14" y2="270.14"/><ellipse cx="521.5" cy="284.14" fill="none" rx="4" ry="4" style="stroke: #A80036; stroke-width: 1.0;"/><!--MD5=[f90cf2ada8a2fad4d4d2aa7464bef220]
link cart to b--><path d="M681,429.28 C681,429.28 681,498.18 681,498.18 " fill="none" id="cart-b" style="stroke: #A80036; stroke-width: 1.0;"/><line style="stroke: #A80036; stroke-width: 1.0;" x1="685" x2="677" y1="502.18" y2="502.18"/><line style="stroke: #A80036; stroke-width: 1.0;" x1="685" x2="677" y1="499.18" y2="499.18"/><line style="stroke: #A80036; stroke-width: 1.0;" x1="681" x2="681" y1="498.18" y2="506.18"/><line style="stroke: #A80036; stroke-width: 1.0;" x1="681" x2="675" y1="429.28" y2="421.28"/><line style="stroke: #A80036; stroke-width: 1.0;" x1="681" x2="687" y1="429.28" y2="421.28"/><line style="stroke: #A80036; stroke-width: 1.0;" x1="681" x2="681" y1="429.28" y2="421.28"/><ellipse cx="681" cy="435.28" fill="none" rx="4" ry="4" style="stroke: #A80036; stroke-width: 1.0;"/><!--MD5=[ca3ab849e142bb15ee818576861c4bab]
link psc to b--><path d="M581.5,448.08 C581.5,448.08 581.5,498.44 581.5,498.44 " fill="none" id="psc-b" style="stroke: #A80036; stroke-width: 1.0;"/><line style="stroke: #A80036; stroke-width: 1.0;" x1="585.5" x2="577.5" y1="502.44" y2="502.44"/><line style="stroke: #A80036; stroke-width: 1.0;" x1="585.5" x2="577.5" y1="499.44" y2="499.44"/><line style="stroke: #A80036; stroke-width: 1.0;" x1="581.5" x2="581.5" y1="498.44" y2="506.44"/><line style="stroke: #A80036; stroke-width: 1.0;" x1="581.5" x2="575.5" y1="448.08" y2="440.08"/><line style="stroke: #A80036; stroke-width: 1.0;" x1="581.5" x2="587.5" y1="448.08" y2="440.08"/><line style="stroke: #A80036; stroke-width: 1.0;" x1="581.5" x2="581.5" y1="448.08" y2="440.08"/><ellipse cx="581.5" cy="454.08" fill="none" rx="4" ry="4" style="stroke: #A80036; stroke-width: 1.0;"/><!--MD5=[6f5c6944a8925acdc4318bb30389e7cc]
link cart to o--><path d="M789.25,429.28 C789.25,429.28 789.25,491.76 789.25,491.76 " fill="none" id="cart-o" style="stroke: #A80036; stroke-width: 1.0;"/><line style="stroke: #A80036; stroke-width: 1.0;" x1="793.25" x2="785.25" y1="495.76" y2="495.76"/><line style="stroke: #A80036; stroke-width: 1.0;" x1="793.25" x2="785.25" y1="492.76" y2="492.76"/><line style="stroke: #A80036; stroke-width: 1.0;" x1="789.25" x2="789.25" y1="491.76" y2="499.76"/><line style="stroke: #A80036; stroke-width: 1.0;" x1="789.25" x2="783.25" y1="429.28" y2="421.28"/><line style="stroke: #A80036; stroke-width: 1.0;" x1="789.25" x2="795.25" y1="429.28" y2="421.28"/><line style="stroke: #A80036; stroke-width: 1.0;" x1="789.25" x2="789.25" y1="429.28" y2="421.28"/><ellipse cx="789.25" cy="435.28" fill="none" rx="4" ry="4" style="stroke: #A80036; stroke-width: 1.0;"/><!--MD5=[6eff39e2c3ffb8cb0ee27322314cc4bf]
link cl to o--><path d="M894.25,441.69 C894.25,441.69 894.25,491.82 894.25,491.82 " fill="none" id="cl-o" style="stroke: #A80036; stroke-width: 1.0;"/><line style="stroke: #A80036; stroke-width: 1.0;" x1="898.25" x2="890.25" y1="495.82" y2="495.82"/><line style="stroke: #A80036; stroke-width: 1.0;" x1="898.25" x2="890.25" y1="492.82" y2="492.82"/><line style="stroke: #A80036; stroke-width: 1.0;" x1="894.25" x2="894.25" y1="491.82" y2="499.82"/><line style="stroke: #A80036; stroke-width: 1.0;" x1="894.25" x2="888.25" y1="441.69" y2="433.69"/><line style="stroke: #A80036; stroke-width: 1.0;" x1="894.25" x2="900.25" y1="441.69" y2="433.69"/><line style="stroke: #A80036; stroke-width: 1.0;" x1="894.25" x2="894.25" y1="441.69" y2="433.69"/><ellipse cx="894.25" cy="447.69" fill="none" rx="4" ry="4" style="stroke: #A80036; stroke-width: 1.0;"/><!--MD5=[9dc08dadf216d8ee1e41ed044b71911f]
@startuml
hide circle

skinparam linetype ortho

entity "Product" as p {
  *product_id : int <<generated>>
  - -
  *name : string
  *description : string
  *image : string
  *category_id : int <<FK>>
  *base_price : decimal
  default_psc_id : int <<FK>> - - default Product_Size_Color ID for this product
}

entity "Category" as c {
  *category_id : int <<generated>>
  - -
  *name : string
  description : string
}

entity "Size" as s {
  *size_id : int <<generated>>
  - -
  *name : string
}

entity "Color" as col {
  *color_id : int <<generated>>
  - -
  *name : string
}

entity "Product_Size_Color" as psc {
  *psc_id : int <<generated>>
  *product_id : int <<FK>>
  *size_id : int <<FK>>
  *color_id : int <<FK>>
  price_factor : decimal = 1.0
}

entity "Cart" as cart {
  *cart_id : int <<generated>>
  total_price : decimal = 0.0
}

entity "Buy" as b {
  *buy_id : int <<generated>>
  *cart_id : int <<FK>>
  *psc_id : int <<FK>>
  *quantity : int
  price : decimal
}

entity "Order" as o {
  *order_id : int <<generated>>
  *cart_id : int <<FK>>
  *client_id : int <<FK>>
  order_date : datetime
  total_price : decimal
  status : string
}

entity "Client" as cl {
  *client_id : int <<generated>>
  *email : string
  number : string
  bill : string
}

p ||..o{ c
p ||..o{ s
p ||..o{ col
p }o..|| psc
s }o..|| psc
col }o..|| psc
cart }o- -|| b
psc }o- -|| b
cart }o- -|| o
cl }o- -|| o
@enduml

PlantUML version 1.2020.02(Sun Mar 01 04:22:07 CST 2020)
(GPL source distribution)
Java Runtime: OpenJDK Runtime Environment
JVM: OpenJDK 64-Bit Server VM
Java Version: 1.8.0_342-8u342-b07-1-b07
Operating System: Linux
Default Encoding: UTF-8
Language: en
Country: US
--></g></svg>